<?xml version="1.0" encoding="UTF-8"?>
<!DOCTYPE svg PUBLIC "-//W3C//DTD SVG 1.1//EN" "http://www.w3.org/Graphics/SVG/1.1/DTD/svg11.dtd">
<svg version="1.2" width="73.8mm" height="27.81mm" viewBox="8011 13028 7380 2781" preserveAspectRatio="xMidYMid" fill-rule="evenodd" stroke-width="28.222" stroke-linejoin="round" xmlns="http://www.w3.org/2000/svg" xmlns:ooo="http://xml.openoffice.org/svg/export" xmlns:xlink="http://www.w3.org/1999/xlink" xmlns:presentation="http://sun.com/xmlns/staroffice/presentation" xmlns:smil="http://www.w3.org/2001/SMIL20/" xmlns:anim="urn:oasis:names:tc:opendocument:xmlns:animation:1.0" xml:space="preserve">
 <defs class="EmbeddedBulletChars">
  <g id="bullet-char-template-57356" transform="scale(0.00048828125,-0.00048828125)">
   <path d="M 580,1141 L 1163,571 580,0 -4,571 580,1141 Z"/>
  </g>
  <g id="bullet-char-template-57354" transform="scale(0.00048828125,-0.00048828125)">
   <path d="M 8,1128 L 1137,1128 1137,0 8,0 8,1128 Z"/>
  </g>
  <g id="bullet-char-template-10146" transform="scale(0.00048828125,-0.00048828125)">
   <path d="M 174,0 L 602,739 174,1481 1456,739 174,0 Z M 1358,739 L 309,1346 659,739 1358,739 Z"/>
  </g>
  <g id="bullet-char-template-10132" transform="scale(0.00048828125,-0.00048828125)">
   <path d="M 2015,739 L 1276,0 717,0 1260,543 174,543 174,936 1260,936 717,1481 1274,1481 2015,739 Z"/>
  </g>
  <g id="bullet-char-template-10007" transform="scale(0.00048828125,-0.00048828125)">
   <path d="M 0,-2 C -7,14 -16,27 -25,37 L 356,567 C 262,823 215,952 215,954 215,979 228,992 255,992 264,992 276,990 289,987 310,991 331,999 354,1012 L 381,999 492,748 772,1049 836,1024 860,1049 C 881,1039 901,1025 922,1006 886,937 835,863 770,784 769,783 710,716 594,584 L 774,223 C 774,196 753,168 711,139 L 727,119 C 717,90 699,76 672,76 641,76 570,178 457,381 L 164,-76 C 142,-110 111,-127 72,-127 30,-127 9,-110 8,-76 1,-67 -2,-52 -2,-32 -2,-23 -1,-13 0,-2 Z"/>
  </g>
  <g id="bullet-char-template-10004" transform="scale(0.00048828125,-0.00048828125)">
   <path d="M 285,-33 C 182,-33 111,30 74,156 52,228 41,333 41,471 41,549 55,616 82,672 116,743 169,778 240,778 293,778 328,747 346,684 L 369,508 C 377,444 397,411 428,410 L 1163,1116 C 1174,1127 1196,1133 1229,1133 1271,1133 1292,1118 1292,1087 L 1292,965 C 1292,929 1282,901 1262,881 L 442,47 C 390,-6 338,-33 285,-33 Z"/>
  </g>
  <g id="bullet-char-template-9679" transform="scale(0.00048828125,-0.00048828125)">
   <path d="M 813,0 C 632,0 489,54 383,161 276,268 223,411 223,592 223,773 276,916 383,1023 489,1130 632,1184 813,1184 992,1184 1136,1130 1245,1023 1353,916 1407,772 1407,592 1407,412 1353,268 1245,161 1136,54 992,0 813,0 Z"/>
  </g>
  <g id="bullet-char-template-8226" transform="scale(0.00048828125,-0.00048828125)">
   <path d="M 346,457 C 273,457 209,483 155,535 101,586 74,649 74,723 74,796 101,859 155,911 209,963 273,989 346,989 419,989 480,963 531,910 582,859 608,796 608,723 608,648 583,586 532,535 482,483 420,457 346,457 Z"/>
  </g>
  <g id="bullet-char-template-8211" transform="scale(0.00048828125,-0.00048828125)">
   <path d="M -4,459 L 1135,459 1135,606 -4,606 -4,459 Z"/>
  </g>
  <g id="bullet-char-template-61548" transform="scale(0.00048828125,-0.00048828125)">
   <path d="M 173,740 C 173,903 231,1043 346,1159 462,1274 601,1332 765,1332 928,1332 1067,1274 1183,1159 1299,1043 1357,903 1357,740 1357,577 1299,437 1183,322 1067,206 928,148 765,148 601,148 462,206 346,322 231,437 173,577 173,740 Z"/>
  </g>
 </defs>
 <g class="Page">
  <g class="com.sun.star.drawing.ClosedBezierShape">
   <g id="id3">
    <rect class="BoundingBox" stroke="none" fill="none" x="8011" y="13028" width="1463" height="2538"/>
    <path fill="rgb(60,60,59)" stroke="none" d="M 8150,15564 L 8660,15564 C 8584,15455 8536,15326 8525,15189 L 8136,15189 8136,13405 9349,13405 9349,14362 C 9370,14364 9391,14366 9412,14370 9433,14373 9453,14377 9473,14382 L 9473,13166 C 9473,13090 9412,13029 9336,13029 L 8150,13029 C 8073,13029 8012,13090 8012,13166 L 8012,15428 C 8012,15504 8074,15564 8150,15564 Z"/>
   </g>
  </g>
  <g class="com.sun.star.drawing.ClosedBezierShape">
   <g id="id4">
    <rect class="BoundingBox" stroke="none" fill="none" x="10357" y="13072" width="1223" height="1389"/>
    <path fill="rgb(60,60,59)" stroke="none" d="M 10360,13446 C 10360,13330 10360,13204 10358,13104 L 10721,13104 C 10729,13139 10734,13233 10736,13277 10782,13192 10892,13073 11129,13073 11402,13073 11579,13257 11579,13597 L 11579,14459 11203,14459 11203,13639 C 11203,13487 11152,13376 10987,13376 10827,13376 10736,13465 10736,13704 L 10736,14459 10361,14459 10361,13446 10360,13446 Z"/>
   </g>
  </g>
  <g class="com.sun.star.drawing.ClosedBezierShape">
   <g id="id5">
    <rect class="BoundingBox" stroke="none" fill="none" x="11880" y="13103" width="1206" height="1390"/>
    <path fill="rgb(60,60,59)" stroke="none" d="M 13082,14066 C 13082,14197 13082,14339 13084,14459 L 12716,14459 C 12711,14424 12709,14351 12706,14304 12626,14440 12506,14491 12333,14491 12057,14491 11880,14324 11880,13988 L 11880,13104 12255,13104 12255,13912 C 12255,14062 12301,14186 12464,14186 12635,14186 12706,14094 12706,13826 L 12706,13104 13082,13104 13082,14066 Z"/>
   </g>
  </g>
  <g class="com.sun.star.drawing.ClosedBezierShape">
   <g id="id6">
    <rect class="BoundingBox" stroke="none" fill="none" x="13417" y="13072" width="1951" height="1389"/>
    <path fill="rgb(60,60,59)" stroke="none" d="M 13420,13454 C 13420,13337 13420,13220 13417,13104 L 13776,13104 C 13782,13137 13789,13213 13791,13266 13860,13165 13969,13073 14168,13073 14363,13073 14470,13174 14518,13279 14597,13168 14715,13073 14936,13073 15172,13073 15366,13218 15366,13571 L 15366,14459 15000,14459 15000,13616 C 15000,13494 14955,13374 14801,13374 14642,13374 14580,13477 14580,13685 L 14580,14459 14211,14459 14211,13630 C 14211,13490 14177,13376 14016,13376 13864,13376 13791,13470 13791,13703 L 13791,14459 13420,14459 13420,13454 Z"/>
   </g>
  </g>
  <g class="com.sun.star.drawing.ClosedBezierShape">
   <g id="id7">
    <rect class="BoundingBox" stroke="none" fill="none" x="10337" y="14907" width="577" height="670"/>
    <path fill="rgb(60,60,59)" stroke="none" d="M 10913,15358 C 10889,15465 10815,15575 10633,15575 10442,15575 10338,15441 10338,15245 10338,15059 10448,14907 10642,14907 10847,14907 10908,15053 10913,15129 L 10761,15129 C 10749,15073 10716,15030 10639,15030 10547,15030 10495,15109 10495,15240 10495,15379 10548,15453 10637,15453 10704,15453 10741,15415 10761,15358 L 10913,15358 Z"/>
   </g>
  </g>
  <g class="com.sun.star.drawing.ClosedBezierShape">
   <g id="id8">
    <rect class="BoundingBox" stroke="none" fill="none" x="11004" y="14906" width="621" height="671"/>
    <path fill="rgb(60,60,59)" stroke="none" d="M 11624,15240 C 11624,15430 11512,15575 11312,15575 11119,15575 11005,15434 11005,15243 11005,15048 11120,14906 11320,14906 11504,14907 11624,15039 11624,15240 Z M 11162,15241 C 11162,15370 11221,15453 11316,15453 11413,15453 11467,15372 11467,15242 11467,15105 11412,15030 11313,15030 11219,15029 11162,15102 11162,15241 Z"/>
   </g>
  </g>
  <g class="com.sun.star.drawing.ClosedBezierShape">
   <g id="id9">
    <rect class="BoundingBox" stroke="none" fill="none" x="11759" y="14906" width="907" height="656"/>
    <path fill="rgb(60,60,59)" stroke="none" d="M 11761,15086 C 11761,15031 11761,14975 11760,14921 L 11907,14921 C 11909,14938 11912,14978 11913,15005 11944,14954 11997,14906 12093,14906 12185,14906 12239,14953 12262,15009 12299,14954 12356,14906 12462,14906 12570,14906 12664,14972 12664,15141 L 12664,15560 12513,15560 12513,15159 C 12513,15096 12490,15032 12408,15032 12323,15032 12289,15091 12289,15194 L 12289,15560 12137,15560 12137,15165 C 12137,15093 12118,15033 12034,15033 11952,15033 11913,15090 11913,15204 L 11913,15560 11761,15560 11761,15086 Z"/>
   </g>
  </g>
  <g class="com.sun.star.drawing.ClosedBezierShape">
   <g id="id10">
    <rect class="BoundingBox" stroke="none" fill="none" x="12839" y="14906" width="605" height="903"/>
    <path fill="rgb(60,60,59)" stroke="none" d="M 12994,15496 L 12994,15807 12841,15807 12841,15076 C 12841,15024 12841,14972 12839,14921 L 12989,14921 C 12991,14940 12994,14979 12994,15008 13024,14955 13083,14906 13188,14906 13333,14906 13442,15028 13442,15225 13442,15451 13319,15575 13164,15575 13070,15575 13020,15538 12994,15496 Z M 13285,15231 C 13285,15107 13233,15032 13141,15032 13029,15032 12988,15103 12988,15241 12988,15373 13024,15451 13133,15451 13234,15451 13285,15370 13285,15231 Z"/>
   </g>
  </g>
  <g class="com.sun.star.drawing.ClosedBezierShape">
   <g id="id11">
    <rect class="BoundingBox" stroke="none" fill="none" x="13537" y="14906" width="562" height="671"/>
    <path fill="rgb(60,60,59)" stroke="none" d="M 14089,15404 C 14089,15464 14094,15544 14097,15560 L 13950,15560 C 13945,15547 13941,15514 13940,15491 13917,15529 13871,15575 13755,15575 13602,15575 13537,15475 13537,15376 13537,15232 13652,15165 13840,15165 13876,15165 13915,15165 13937,15165 L 13937,15121 C 13937,15072 13920,15019 13826,15019 13740,15019 13723,15058 13714,15105 L 13566,15105 C 13576,15000 13641,14905 13831,14906 13997,14907 14088,14973 14088,15122 L 14088,15404 14089,15404 Z M 13938,15263 C 13921,15263 13882,15263 13855,15263 13742,15263 13693,15296 13693,15367 13693,15421 13727,15463 13796,15463 13922,15463 13938,15376 13938,15281 L 13938,15263 Z"/>
   </g>
  </g>
  <g class="com.sun.star.drawing.ClosedBezierShape">
   <g id="id12">
    <rect class="BoundingBox" stroke="none" fill="none" x="14208" y="14907" width="547" height="670"/>
    <path fill="rgb(60,60,59)" stroke="none" d="M 14360,15371 C 14375,15429 14420,15462 14493,15462 14568,15462 14596,15432 14596,15387 14596,15340 14568,15320 14466,15295 14267,15246 14232,15185 14232,15096 14232,15003 14298,14907 14481,14907 14665,14907 14731,15009 14738,15096 L 14590,15096 C 14583,15067 14562,15018 14474,15018 14405,15018 14384,15050 14384,15083 14384,15120 14406,15138 14514,15163 14720,15212 14753,15282 14753,15376 14753,15484 14670,15575 14487,15575 14303,15575 14223,15485 14208,15371 L 14360,15371 Z"/>
   </g>
  </g>
  <g class="com.sun.star.drawing.ClosedBezierShape">
   <g id="id13">
    <rect class="BoundingBox" stroke="none" fill="none" x="14843" y="14907" width="548" height="670"/>
    <path fill="rgb(60,60,59)" stroke="none" d="M 14996,15371 C 15011,15429 15056,15462 15129,15462 15203,15462 15232,15432 15232,15387 15232,15340 15204,15320 15102,15295 14902,15246 14867,15185 14867,15096 14867,15003 14933,14907 15116,14907 15301,14907 15367,15009 15373,15096 L 15226,15096 C 15219,15067 15198,15018 15110,15018 15041,15018 15019,15050 15019,15083 15019,15120 15041,15138 15149,15163 15356,15212 15389,15282 15389,15376 15389,15484 15306,15575 15123,15575 14938,15575 14858,15485 14843,15371 L 14996,15371 Z"/>
   </g>
  </g>
  <g class="com.sun.star.drawing.ClosedBezierShape">
   <g id="id14">
    <rect class="BoundingBox" stroke="none" fill="none" x="8566" y="13171" width="358" height="93"/>
    <path fill="rgb(255,255,255)" stroke="none" d="M 8877,13263 L 8612,13263 C 8587,13263 8567,13243 8567,13217 L 8567,13217 C 8567,13192 8587,13172 8612,13172 L 8877,13172 C 8902,13172 8923,13192 8923,13217 L 8923,13217 C 8923,13243 8902,13263 8877,13263 Z"/>
   </g>
  </g>
  <g class="com.sun.star.drawing.ClosedBezierShape">
   <g id="id15">
    <rect class="BoundingBox" stroke="none" fill="none" x="8630" y="14467" width="1322" height="1321"/>
    <path fill="rgb(231,92,109)" stroke="none" d="M 9275,14467 C 9254,14467 9232,14470 9211,14472 9189,14475 9168,14478 9147,14483 9126,14488 9105,14493 9085,14500 9064,14507 9044,14515 9024,14523 9004,14532 8985,14542 8966,14552 8947,14563 8929,14575 8911,14587 8894,14599 8876,14613 8860,14627 8843,14641 8827,14656 8813,14671 8798,14687 8784,14703 8771,14720 8758,14737 8745,14755 8734,14773 8722,14791 8712,14810 8702,14830 8692,14849 8683,14869 8676,14889 8668,14909 8661,14930 8655,14950 8649,14971 8645,14992 8641,15013 8637,15035 8635,15057 8633,15078 8631,15100 8630,15122 8631,15143 8631,15165 8634,15186 8636,15207 8639,15228 8643,15250 8647,15271 8652,15292 8658,15313 8665,15333 8671,15354 8679,15374 8688,15394 8697,15414 8706,15433 8717,15452 8727,15471 8739,15489 8752,15506 8764,15524 8777,15542 8791,15558 8805,15575 8820,15590 8836,15604 8852,15619 8868,15634 8885,15647 8902,15661 8920,15672 8938,15684 8956,15696 8975,15706 8994,15716 9013,15726 9033,15735 9053,15742 9074,15750 9094,15757 9115,15763 9136,15768 9157,15773 9178,15777 9199,15781 9221,15783 9242,15785 9264,15786 9285,15787 9307,15786 9329,15786 9350,15785 9372,15782 9393,15780 9415,15775 9435,15770 9457,15766 9477,15760 9498,15753 9518,15746 9539,15739 9558,15730 9578,15721 9597,15712 9616,15701 9634,15690 9653,15679 9671,15666 9689,15654 9705,15641 9722,15627 9738,15613 9754,15598 9769,15582 9784,15567 9797,15550 9811,15533 9824,15516 9837,15498 9849,15480 9860,15462 9871,15444 9881,15424 9890,15405 9899,15385 9907,15364 9915,15344 9921,15324 9927,15303 9933,15282 9938,15261 9942,15240 9945,15218 9948,15197 9949,15176 9951,15154 9951,15133 9951,15111 9950,15090 9948,15068 9946,15046 9943,15025 9940,15003 9935,14982 9930,14961 9925,14941 9918,14920 9911,14899 9903,14879 9895,14859 9886,14840 9876,14821 9866,14802 9855,14784 9843,14765 9831,14747 9818,14729 9805,14713 9791,14696 9777,14680 9762,14664 9747,14649 9731,14634 9715,14621 9698,14607 9681,14594 9663,14581 9645,14569 9626,14558 9607,14547 9588,14537 9568,14527 9549,14519 9529,14511 9509,14503 9488,14497 9468,14491 9447,14485 9426,14480 9404,14476 9383,14473 9362,14470 9340,14468 9318,14467 9297,14466 9275,14467 Z"/>
   </g>
  </g>
  <g class="com.sun.star.drawing.ClosedBezierShape">
   <g id="id16">
    <rect class="BoundingBox" stroke="none" fill="none" x="8791" y="14628" width="997" height="997"/>
    <path fill="rgb(255,255,255)" stroke="none" d="M 9259,14629 C 9532,14612 9769,14822 9786,15095 9802,15368 9593,15605 9320,15622 9046,15639 8809,15429 8793,15155 8776,14882 8986,14645 9259,14629 Z M 9264,14711 C 9036,14725 8861,14923 8875,15150 8888,15378 9087,15553 9315,15539 9542,15526 9717,15328 9703,15100 9690,14872 9492,14698 9264,14711 Z"/>
   </g>
  </g>
  <g class="com.sun.star.drawing.PolyPolygonShape">
   <g id="id17">
    <rect class="BoundingBox" stroke="none" fill="none" x="9055" y="14862" width="468" height="529"/>
    <path fill="rgb(255,255,255)" stroke="none" d="M 9206,15051 L 9522,14862 9373,15199 9056,15389 9206,15051 Z"/>
   </g>
  </g>
  <g class="com.sun.star.drawing.ClosedBezierShape">
   <g id="id18">
    <rect class="BoundingBox" stroke="none" fill="none" x="9222" y="15069" width="135" height="136"/>
    <path fill="rgb(232,93,109)" stroke="none" d="M 9356,15136 C 9356,15148 9352,15159 9347,15169 9341,15179 9333,15189 9323,15194 9313,15200 9301,15203 9290,15203 9278,15203 9266,15200 9256,15194 9246,15189 9238,15179 9232,15169 9226,15159 9223,15148 9223,15136 9223,15124 9226,15113 9232,15103 9238,15092 9246,15084 9256,15078 9266,15072 9278,15069 9290,15069 9301,15069 9313,15072 9323,15078 9333,15084 9342,15092 9347,15103 9353,15113 9356,15124 9356,15136 Z"/>
   </g>
  </g>
 </g>
</svg>