<?xml version="1.0" encoding="UTF-8"?>
<!DOCTYPE svg PUBLIC "-//W3C//DTD SVG 1.1//EN" "http://www.w3.org/Graphics/SVG/1.1/DTD/svg11.dtd">
<svg version="1.2" width="62.41mm" height="19.48mm" viewBox="999 999 6241 1948" preserveAspectRatio="xMidYMid" fill-rule="evenodd" stroke-width="28.222" stroke-linejoin="round" xmlns="http://www.w3.org/2000/svg" xmlns:ooo="http://xml.openoffice.org/svg/export" xmlns:xlink="http://www.w3.org/1999/xlink" xmlns:presentation="http://sun.com/xmlns/staroffice/presentation" xmlns:smil="http://www.w3.org/2001/SMIL20/" xmlns:anim="urn:oasis:names:tc:opendocument:xmlns:animation:1.0" xml:space="preserve">
 <defs class="EmbeddedBulletChars">
  <g id="bullet-char-template-57356" transform="scale(0.00048828125,-0.00048828125)">
   <path d="M 580,1141 L 1163,571 580,0 -4,571 580,1141 Z"/>
  </g>
  <g id="bullet-char-template-57354" transform="scale(0.00048828125,-0.00048828125)">
   <path d="M 8,1128 L 1137,1128 1137,0 8,0 8,1128 Z"/>
  </g>
  <g id="bullet-char-template-10146" transform="scale(0.00048828125,-0.00048828125)">
   <path d="M 174,0 L 602,739 174,1481 1456,739 174,0 Z M 1358,739 L 309,1346 659,739 1358,739 Z"/>
  </g>
  <g id="bullet-char-template-10132" transform="scale(0.00048828125,-0.00048828125)">
   <path d="M 2015,739 L 1276,0 717,0 1260,543 174,543 174,936 1260,936 717,1481 1274,1481 2015,739 Z"/>
  </g>
  <g id="bullet-char-template-10007" transform="scale(0.00048828125,-0.00048828125)">
   <path d="M 0,-2 C -7,14 -16,27 -25,37 L 356,567 C 262,823 215,952 215,954 215,979 228,992 255,992 264,992 276,990 289,987 310,991 331,999 354,1012 L 381,999 492,748 772,1049 836,1024 860,1049 C 881,1039 901,1025 922,1006 886,937 835,863 770,784 769,783 710,716 594,584 L 774,223 C 774,196 753,168 711,139 L 727,119 C 717,90 699,76 672,76 641,76 570,178 457,381 L 164,-76 C 142,-110 111,-127 72,-127 30,-127 9,-110 8,-76 1,-67 -2,-52 -2,-32 -2,-23 -1,-13 0,-2 Z"/>
  </g>
  <g id="bullet-char-template-10004" transform="scale(0.00048828125,-0.00048828125)">
   <path d="M 285,-33 C 182,-33 111,30 74,156 52,228 41,333 41,471 41,549 55,616 82,672 116,743 169,778 240,778 293,778 328,747 346,684 L 369,508 C 377,444 397,411 428,410 L 1163,1116 C 1174,1127 1196,1133 1229,1133 1271,1133 1292,1118 1292,1087 L 1292,965 C 1292,929 1282,901 1262,881 L 442,47 C 390,-6 338,-33 285,-33 Z"/>
  </g>
  <g id="bullet-char-template-9679" transform="scale(0.00048828125,-0.00048828125)">
   <path d="M 813,0 C 632,0 489,54 383,161 276,268 223,411 223,592 223,773 276,916 383,1023 489,1130 632,1184 813,1184 992,1184 1136,1130 1245,1023 1353,916 1407,772 1407,592 1407,412 1353,268 1245,161 1136,54 992,0 813,0 Z"/>
  </g>
  <g id="bullet-char-template-8226" transform="scale(0.00048828125,-0.00048828125)">
   <path d="M 346,457 C 273,457 209,483 155,535 101,586 74,649 74,723 74,796 101,859 155,911 209,963 273,989 346,989 419,989 480,963 531,910 582,859 608,796 608,723 608,648 583,586 532,535 482,483 420,457 346,457 Z"/>
  </g>
  <g id="bullet-char-template-8211" transform="scale(0.00048828125,-0.00048828125)">
   <path d="M -4,459 L 1135,459 1135,606 -4,606 -4,459 Z"/>
  </g>
  <g id="bullet-char-template-61548" transform="scale(0.00048828125,-0.00048828125)">
   <path d="M 173,740 C 173,903 231,1043 346,1159 462,1274 601,1332 765,1332 928,1332 1067,1274 1183,1159 1299,1043 1357,903 1357,740 1357,577 1299,437 1183,322 1067,206 928,148 765,148 601,148 462,206 346,322 231,437 173,577 173,740 Z"/>
  </g>
 </defs>
 <g class="Page">
  <g class="com.sun.star.drawing.ClosedBezierShape">
   <g id="id3">
    <rect class="BoundingBox" stroke="none" fill="none" x="999" y="999" width="1008" height="1748"/>
    <path fill="rgb(60,60,59)" stroke="none" d="M 1095,1000 L 1911,1000 C 1963,1000 2006,1042 2006,1094 L 2006,2651 C 2006,2703 1964,2745 1911,2745 L 1095,2745 C 1042,2745 1000,2703 1000,2651 L 1000,1094 C 1000,1042 1042,1000 1095,1000 Z M 1063,2495 L 1943,2495 1943,1249 1063,1249 1063,2495 Z M 1471,1125 C 1453,1125 1440,1139 1440,1156 1440,1173 1454,1187 1471,1187 L 1661,1187 C 1678,1187 1691,1173 1691,1156 1691,1140 1678,1125 1661,1125 L 1471,1125 Z M 1346,1187 C 1363,1187 1377,1173 1377,1156 1377,1139 1363,1125 1346,1125 1328,1125 1314,1139 1314,1156 1314,1173 1328,1187 1346,1187 Z M 1503,2651 C 1538,2651 1566,2623 1566,2589 1566,2554 1538,2526 1503,2526 1468,2526 1440,2554 1440,2589 1440,2623 1468,2651 1503,2651 Z M 1503,2651 L 1503,2651 Z"/>
   </g>
  </g>
  <g class="com.sun.star.drawing.ClosedBezierShape">
   <g id="id4">
    <rect class="BoundingBox" stroke="none" fill="none" x="1694" y="2138" width="809" height="809"/>
    <path fill="rgb(232,94,110)" stroke="none" d="M 2098,2139 C 2072,2139 2045,2141 2020,2147 1994,2152 1968,2159 1944,2169 1919,2180 1896,2192 1874,2207 1852,2221 1832,2238 1813,2257 1794,2276 1777,2295 1763,2317 1748,2339 1736,2362 1725,2387 1715,2411 1708,2437 1702,2462 1697,2489 1695,2515 1695,2541 1695,2568 1697,2594 1702,2620 1708,2646 1715,2671 1725,2696 1736,2720 1748,2743 1763,2765 1777,2787 1794,2809 1813,2827 1832,2846 1852,2863 1874,2877 1896,2892 1919,2904 1944,2914 1968,2924 1994,2932 2020,2937 2045,2942 2071,2945 2098,2945 2124,2945 2151,2942 2177,2937 2203,2932 2228,2924 2253,2914 2277,2904 2300,2892 2322,2877 2344,2863 2365,2845 2383,2827 2402,2808 2419,2787 2434,2765 2448,2743 2461,2720 2471,2696 2481,2671 2489,2646 2494,2620 2499,2594 2502,2568 2502,2541 2502,2515 2499,2489 2494,2462 2489,2437 2481,2411 2471,2387 2461,2362 2448,2339 2434,2317 2419,2295 2402,2276 2383,2257 2365,2238 2344,2221 2322,2207 2300,2192 2277,2180 2253,2169 2228,2159 2203,2152 2177,2147 2151,2141 2125,2139 2098,2139 Z"/>
   </g>
  </g>
  <g class="com.sun.star.drawing.ClosedBezierShape">
   <g id="id5">
    <rect class="BoundingBox" stroke="none" fill="none" x="1792" y="2236" width="611" height="610"/>
    <path fill="rgb(255,255,255)" stroke="none" d="M 2351,2540 C 2351,2680 2236,2794 2097,2794 1957,2794 1844,2680 1844,2540 1844,2401 1957,2287 2097,2287 2236,2287 2351,2401 2351,2540 Z M 2097,2237 C 1930,2237 1793,2373 1793,2540 1793,2708 1930,2844 2097,2844 2265,2844 2402,2708 2402,2540 2402,2373 2265,2237 2097,2237 Z"/>
   </g>
  </g>
  <g class="com.sun.star.drawing.ClosedBezierShape">
   <g id="id6">
    <rect class="BoundingBox" stroke="none" fill="none" x="1944" y="2388" width="306" height="306"/>
    <path fill="rgb(255,255,255)" stroke="none" d="M 2049,2492 L 1945,2692 2146,2588 2249,2388 2049,2492 Z M 2097,2568 C 2082,2568 2069,2555 2069,2540 2069,2525 2082,2512 2097,2512 2112,2512 2125,2525 2125,2540 2125,2555 2112,2568 2097,2568 Z"/>
   </g>
  </g>
  <g class="com.sun.star.drawing.ClosedBezierShape">
   <g id="id7">
    <rect class="BoundingBox" stroke="none" fill="none" x="3025" y="1015" width="810" height="879"/>
    <path fill="rgb(65,64,66)" stroke="none" d="M 3032,1192 C 3032,1191 3032,1185 3032,1175 3032,1164 3031,1151 3031,1135 3030,1120 3029,1104 3029,1086 3028,1067 3028,1051 3026,1036 L 3266,1036 3273,1165 C 3279,1155 3288,1141 3300,1125 3313,1109 3329,1093 3351,1076 3372,1060 3399,1046 3432,1034 3465,1022 3504,1016 3550,1016 3592,1016 3628,1022 3658,1033 3689,1044 3714,1058 3735,1074 3756,1091 3772,1108 3784,1127 3796,1145 3805,1162 3810,1177 3815,1190 3819,1203 3822,1216 3826,1229 3828,1245 3830,1264 3832,1282 3832,1305 3833,1332 3833,1359 3834,1392 3834,1432 L 3834,1893 3579,1893 3579,1363 C 3579,1345 3578,1328 3577,1313 3576,1298 3572,1283 3565,1270 3556,1250 3542,1234 3522,1219 3503,1204 3477,1197 3444,1197 3417,1197 3392,1203 3369,1215 3345,1227 3327,1243 3314,1263 3306,1274 3299,1291 3293,1312 3286,1333 3283,1360 3283,1393 L 3283,1893 3032,1893 3032,1192 Z"/>
   </g>
  </g>
  <g class="com.sun.star.drawing.ClosedBezierShape">
   <g id="id8">
    <rect class="BoundingBox" stroke="none" fill="none" x="4446" y="1039" width="819" height="877"/>
    <path fill="rgb(65,64,66)" stroke="none" d="M 4701,1040 L 4701,1549 C 4701,1568 4701,1587 4703,1609 4704,1630 4708,1651 4716,1670 4724,1689 4738,1705 4756,1717 4774,1730 4800,1736 4833,1736 4874,1736 4905,1729 4926,1715 4948,1701 4964,1682 4974,1657 4984,1633 4990,1605 4991,1573 4993,1541 4994,1507 4994,1471 L 4994,1040 5251,1040 5251,1603 C 5252,1649 5253,1685 5253,1713 5254,1740 5255,1761 5255,1777 5256,1792 5256,1804 5256,1812 5256,1819 5256,1825 5256,1831 5257,1843 5258,1853 5258,1862 5259,1870 5260,1881 5263,1893 L 5019,1893 5011,1780 C 5004,1789 4995,1801 4983,1816 4971,1831 4955,1846 4936,1861 4916,1876 4892,1888 4863,1899 4834,1910 4800,1915 4759,1915 4703,1915 4651,1904 4606,1881 4561,1859 4527,1832 4503,1800 4490,1783 4479,1764 4471,1741 4463,1719 4458,1697 4454,1675 4451,1654 4449,1634 4448,1614 4448,1595 4447,1581 4447,1570 L 4447,1040 4701,1040 Z"/>
   </g>
  </g>
  <g class="com.sun.star.drawing.ClosedBezierShape">
   <g id="id9">
    <rect class="BoundingBox" stroke="none" fill="none" x="5879" y="1020" width="1361" height="874"/>
    <path fill="rgb(65,64,66)" stroke="none" d="M 5888,1200 C 5888,1173 5887,1147 5885,1120 5883,1094 5882,1067 5879,1040 L 6121,1040 6129,1150 C 6136,1141 6146,1129 6158,1114 6171,1100 6187,1086 6207,1072 6227,1058 6253,1047 6283,1036 6314,1026 6350,1021 6393,1021 6441,1021 6482,1028 6515,1041 6547,1054 6574,1069 6594,1086 6614,1104 6630,1121 6640,1140 6650,1158 6657,1172 6662,1182 6680,1148 6700,1121 6722,1100 6745,1079 6768,1063 6793,1052 6817,1040 6841,1033 6865,1029 6889,1025 6913,1023 6935,1023 6978,1023 7015,1029 7046,1040 7077,1051 7103,1064 7123,1079 7143,1093 7159,1109 7171,1124 7183,1140 7191,1152 7196,1160 7207,1179 7215,1199 7221,1221 7226,1242 7231,1264 7234,1286 7236,1308 7238,1330 7238,1352 7238,1374 7238,1394 7238,1412 L 7238,1893 6986,1893 6986,1391 C 6986,1369 6985,1346 6982,1323 6979,1300 6973,1279 6963,1260 6954,1242 6939,1227 6920,1216 6901,1204 6875,1199 6842,1199 6805,1199 6776,1207 6755,1222 6735,1238 6719,1259 6709,1284 6699,1309 6693,1338 6691,1370 6689,1402 6689,1434 6689,1466 L 6689,1893 6437,1893 6437,1386 C 6437,1369 6436,1350 6434,1329 6433,1307 6427,1287 6418,1268 6409,1249 6396,1233 6377,1219 6358,1205 6332,1199 6297,1199 6257,1199 6227,1206 6205,1221 6184,1235 6168,1253 6159,1273 6149,1293 6144,1314 6142,1336 6140,1358 6140,1377 6140,1391 L 6140,1893 5888,1893 5888,1200 Z"/>
   </g>
  </g>
  <g class="com.sun.star.drawing.ClosedBezierShape">
   <g id="id10">
    <rect class="BoundingBox" stroke="none" fill="none" x="3126" y="2435" width="288" height="355"/>
    <path fill="rgb(65,64,66)" stroke="none" d="M 3347,2551 C 3347,2547 3346,2541 3344,2533 3343,2526 3340,2518 3336,2510 3331,2502 3325,2495 3316,2490 3307,2484 3295,2481 3280,2481 3258,2481 3241,2486 3229,2497 3217,2508 3209,2520 3204,2534 3198,2549 3195,2563 3194,2577 3193,2591 3193,2601 3193,2607 3193,2625 3194,2642 3197,2657 3199,2673 3203,2687 3210,2700 3216,2712 3224,2722 3235,2730 3246,2737 3260,2741 3277,2741 3290,2741 3301,2739 3311,2734 3320,2730 3327,2724 3333,2717 3338,2710 3342,2702 3345,2693 3348,2684 3349,2676 3350,2668 L 3413,2668 C 3412,2684 3409,2700 3402,2714 3396,2729 3387,2742 3375,2753 3364,2763 3350,2772 3333,2779 3316,2785 3298,2788 3277,2788 3272,2788 3264,2788 3255,2787 3246,2786 3237,2784 3227,2781 3217,2778 3206,2774 3196,2768 3185,2762 3176,2755 3167,2745 3162,2739 3157,2732 3152,2725 3147,2717 3143,2708 3139,2698 3135,2688 3132,2676 3130,2662 3128,2649 3127,2634 3127,2616 3127,2581 3131,2552 3141,2529 3151,2505 3163,2487 3178,2473 3193,2459 3209,2449 3227,2443 3245,2437 3262,2435 3279,2435 3285,2435 3292,2435 3300,2436 3309,2437 3318,2439 3328,2442 3338,2445 3347,2449 3357,2454 3366,2459 3375,2467 3383,2476 3395,2490 3403,2504 3405,2517 3408,2531 3410,2542 3411,2551 L 3347,2551 Z"/>
   </g>
  </g>
  <g class="com.sun.star.drawing.ClosedBezierShape">
   <g id="id11">
    <rect class="BoundingBox" stroke="none" fill="none" x="3684" y="2435" width="338" height="358"/>
    <path fill="rgb(65,64,66)" stroke="none" d="M 3751,2611 C 3751,2629 3753,2646 3757,2661 3761,2677 3767,2692 3775,2704 3783,2717 3794,2726 3806,2733 3819,2740 3834,2744 3852,2744 3864,2744 3876,2742 3889,2737 3901,2732 3911,2725 3921,2714 3931,2704 3939,2690 3945,2673 3951,2656 3954,2634 3954,2609 3954,2567 3945,2535 3927,2513 3909,2492 3886,2481 3856,2481 3846,2481 3835,2483 3823,2486 3811,2490 3799,2497 3789,2507 3778,2516 3769,2529 3762,2547 3755,2564 3751,2585 3751,2611 Z M 3685,2615 C 3685,2595 3688,2574 3693,2552 3699,2531 3708,2512 3721,2494 3734,2477 3752,2463 3774,2451 3796,2440 3823,2435 3856,2435 3890,2435 3917,2440 3939,2452 3960,2464 3977,2479 3989,2497 4002,2514 4010,2533 4014,2554 4019,2574 4021,2593 4021,2611 4021,2635 4018,2659 4011,2681 4004,2702 3993,2722 3979,2738 3965,2754 3948,2767 3926,2777 3905,2786 3880,2791 3851,2791 3823,2791 3799,2786 3778,2777 3758,2768 3740,2756 3726,2740 3712,2725 3702,2706 3695,2685 3689,2663 3685,2640 3685,2615 Z"/>
   </g>
  </g>
  <g class="com.sun.star.drawing.ClosedBezierShape">
   <g id="id12">
    <rect class="BoundingBox" stroke="none" fill="none" x="4336" y="2435" width="519" height="347"/>
    <path fill="rgb(65,64,66)" stroke="none" d="M 4339,2488 L 4337,2443 4401,2443 4401,2492 C 4409,2479 4418,2468 4427,2461 4437,2453 4446,2447 4456,2444 4465,2440 4475,2437 4484,2436 4492,2435 4501,2435 4508,2435 4527,2435 4542,2437 4555,2441 4567,2445 4578,2450 4586,2457 4595,2463 4601,2470 4606,2477 4611,2485 4615,2491 4618,2498 4620,2493 4624,2487 4630,2480 4635,2473 4642,2466 4651,2459 4659,2453 4670,2447 4683,2442 4696,2437 4711,2435 4730,2435 4742,2435 4755,2436 4769,2439 4784,2442 4797,2448 4810,2457 4822,2466 4833,2478 4841,2494 4849,2509 4853,2529 4853,2554 L 4853,2780 4790,2780 4790,2564 C 4790,2549 4788,2538 4786,2531 4784,2523 4781,2517 4778,2513 4773,2505 4765,2499 4754,2493 4743,2486 4730,2483 4714,2483 4705,2483 4695,2485 4688,2488 4680,2490 4673,2493 4667,2497 4661,2501 4656,2504 4652,2508 4648,2512 4645,2516 4643,2519 4640,2524 4637,2530 4635,2537 4633,2544 4631,2551 4630,2558 4629,2564 4629,2571 4629,2577 4628,2583 4628,2588 4628,2591 L 4628,2780 4565,2780 4565,2557 C 4565,2536 4559,2519 4547,2505 4535,2490 4516,2483 4491,2483 4480,2483 4471,2485 4462,2488 4454,2491 4447,2494 4441,2498 4435,2502 4430,2506 4426,2510 4422,2514 4419,2518 4417,2520 4410,2530 4406,2541 4405,2554 4403,2566 4402,2578 4402,2589 L 4402,2780 4339,2780 4339,2488 Z"/>
   </g>
  </g>
  <g class="com.sun.star.drawing.ClosedBezierShape">
   <g id="id13">
    <rect class="BoundingBox" stroke="none" fill="none" x="5187" y="2438" width="323" height="473"/>
    <path fill="rgb(65,64,66)" stroke="none" d="M 5249,2622 C 5249,2632 5250,2644 5252,2658 5253,2673 5257,2686 5263,2699 5270,2712 5279,2723 5291,2732 5304,2742 5321,2746 5344,2746 5348,2746 5353,2746 5359,2745 5364,2745 5370,2743 5377,2741 5384,2739 5390,2735 5397,2731 5403,2727 5409,2721 5415,2713 5421,2705 5425,2696 5429,2687 5433,2677 5436,2667 5438,2657 5439,2648 5441,2639 5441,2630 5442,2622 5442,2614 5442,2608 5442,2593 5441,2578 5438,2563 5436,2548 5431,2535 5424,2524 5417,2512 5408,2503 5396,2496 5384,2488 5369,2485 5350,2485 5325,2485 5306,2491 5292,2502 5279,2514 5268,2527 5262,2542 5256,2557 5252,2572 5251,2587 5250,2603 5249,2614 5249,2622 Z M 5189,2498 C 5189,2495 5189,2491 5189,2488 5189,2485 5189,2482 5189,2478 5188,2473 5188,2469 5188,2463 5188,2458 5187,2451 5187,2443 L 5251,2443 5252,2499 C 5260,2486 5269,2475 5279,2467 5290,2459 5300,2453 5311,2449 5322,2444 5332,2441 5342,2440 5352,2439 5360,2438 5366,2438 5384,2438 5402,2441 5419,2448 5436,2454 5451,2464 5464,2478 5477,2493 5488,2511 5496,2532 5504,2554 5508,2581 5508,2612 5508,2643 5504,2670 5495,2693 5487,2716 5475,2735 5461,2750 5447,2764 5431,2775 5412,2782 5394,2789 5375,2792 5355,2792 5330,2792 5309,2788 5291,2778 5273,2769 5260,2757 5251,2742 L 5251,2909 5189,2909 5189,2498 Z"/>
   </g>
  </g>
  <g class="com.sun.star.drawing.ClosedBezierShape">
   <g id="id14">
    <rect class="BoundingBox" stroke="none" fill="none" x="5797" y="2433" width="287" height="359"/>
    <path fill="rgb(65,64,66)" stroke="none" d="M 6018,2616 C 6012,2615 6007,2615 6001,2615 5996,2614 5989,2614 5982,2614 5976,2614 5966,2615 5952,2615 5939,2616 5925,2618 5912,2623 5898,2627 5886,2634 5876,2643 5866,2652 5860,2666 5860,2683 5860,2688 5861,2694 5863,2701 5865,2707 5869,2714 5874,2720 5879,2726 5886,2731 5895,2735 5904,2739 5916,2741 5930,2741 5962,2741 5986,2729 6002,2705 6005,2699 6008,2693 6010,2688 6012,2683 6014,2677 6015,2670 6015,2663 6016,2655 6017,2647 6017,2638 6017,2628 6018,2616 Z M 6025,2780 C 6023,2771 6022,2763 6021,2755 6020,2747 6019,2738 6019,2729 6012,2743 6003,2754 5994,2762 5985,2770 5976,2776 5966,2781 5957,2785 5948,2788 5939,2789 5930,2790 5922,2790 5915,2790 5896,2790 5879,2788 5864,2783 5850,2778 5837,2771 5827,2762 5817,2753 5810,2742 5805,2730 5799,2718 5797,2705 5797,2691 5797,2685 5797,2677 5799,2669 5801,2660 5804,2651 5808,2643 5812,2634 5818,2625 5826,2617 5833,2608 5843,2600 5856,2593 5865,2588 5875,2584 5885,2581 5896,2578 5907,2576 5917,2574 5928,2573 5938,2572 5948,2571 5957,2571 5966,2571 5972,2571 5980,2571 5988,2571 5994,2571 6000,2571 6008,2572 6018,2573 6018,2562 6018,2553 6018,2545 6017,2538 6017,2531 6016,2525 6016,2520 6015,2515 6013,2510 6011,2506 6009,2502 6006,2498 6000,2490 5991,2484 5979,2481 5967,2478 5957,2476 5948,2476 5931,2476 5919,2478 5910,2483 5901,2488 5894,2493 5890,2500 5885,2506 5883,2512 5882,2519 5880,2525 5880,2530 5880,2533 L 5817,2533 C 5818,2524 5819,2514 5822,2503 5824,2492 5831,2481 5840,2469 5847,2462 5854,2456 5863,2452 5872,2447 5881,2443 5891,2441 5901,2438 5910,2436 5920,2435 5930,2434 5940,2433 5949,2433 5961,2433 5973,2434 5985,2436 5998,2438 6009,2441 6020,2445 6031,2449 6040,2455 6049,2461 6057,2467 6064,2474 6068,2483 6073,2493 6077,2503 6078,2511 6079,2520 6080,2527 6080,2534 L 6077,2695 C 6077,2697 6077,2700 6077,2706 6077,2712 6078,2719 6078,2727 6078,2735 6079,2743 6079,2753 6080,2762 6081,2771 6082,2780 L 6025,2780 Z"/>
   </g>
  </g>
  <g class="com.sun.star.drawing.ClosedBezierShape">
   <g id="id15">
    <rect class="BoundingBox" stroke="none" fill="none" x="6382" y="2435" width="279" height="356"/>
    <path fill="rgb(65,64,66)" stroke="none" d="M 6449,2680 C 6449,2686 6450,2693 6452,2700 6453,2707 6457,2714 6463,2720 6468,2726 6476,2731 6485,2735 6495,2739 6507,2741 6523,2741 6536,2741 6547,2739 6557,2736 6567,2734 6575,2728 6582,2719 6589,2710 6592,2700 6592,2688 6592,2680 6591,2674 6588,2668 6585,2663 6580,2658 6574,2655 6568,2651 6561,2648 6551,2646 6542,2643 6531,2640 6518,2638 6501,2634 6484,2629 6469,2625 6453,2620 6439,2615 6427,2607 6416,2600 6406,2591 6400,2580 6393,2569 6389,2555 6389,2537 6389,2522 6392,2508 6399,2495 6405,2482 6414,2472 6426,2463 6437,2454 6451,2447 6467,2443 6483,2438 6501,2435 6521,2435 6531,2435 6543,2436 6555,2438 6567,2440 6578,2443 6590,2447 6601,2451 6611,2456 6620,2463 6630,2469 6637,2478 6642,2488 6646,2497 6649,2506 6650,2514 6650,2522 6650,2529 6650,2537 L 6586,2537 C 6587,2524 6585,2514 6580,2507 6576,2499 6570,2494 6563,2490 6556,2486 6549,2484 6541,2483 6534,2482 6527,2482 6521,2482 6519,2482 6514,2482 6507,2482 6499,2483 6492,2484 6484,2488 6476,2491 6468,2495 6462,2502 6456,2508 6453,2518 6453,2530 6453,2537 6455,2544 6458,2549 6461,2554 6465,2558 6470,2561 6475,2564 6480,2567 6486,2568 6491,2570 6496,2571 6500,2573 6524,2578 6543,2583 6558,2586 6573,2590 6585,2594 6595,2597 6604,2600 6612,2604 6618,2607 6623,2611 6629,2614 6634,2619 6643,2628 6650,2638 6654,2649 6657,2660 6659,2670 6659,2681 6659,2700 6655,2717 6646,2732 6637,2747 6626,2759 6614,2766 6599,2775 6583,2781 6566,2784 6549,2788 6531,2789 6514,2789 6497,2789 6480,2787 6465,2783 6449,2780 6435,2774 6422,2765 6410,2756 6400,2745 6393,2731 6386,2717 6382,2700 6382,2680 L 6449,2680 Z"/>
   </g>
  </g>
  <g class="com.sun.star.drawing.ClosedBezierShape">
   <g id="id16">
    <rect class="BoundingBox" stroke="none" fill="none" x="6937" y="2435" width="279" height="356"/>
    <path fill="rgb(65,64,66)" stroke="none" d="M 7004,2680 C 7004,2686 7005,2693 7006,2700 7008,2707 7012,2714 7017,2720 7023,2726 7031,2731 7040,2735 7050,2739 7062,2741 7078,2741 7090,2741 7102,2739 7112,2736 7121,2734 7130,2728 7136,2719 7144,2710 7147,2700 7147,2688 7147,2680 7146,2674 7143,2668 7140,2663 7135,2658 7129,2655 7123,2651 7116,2648 7106,2646 7097,2643 7086,2640 7073,2638 7056,2634 7039,2629 7023,2625 7008,2620 6994,2615 6982,2607 6971,2600 6961,2591 6954,2580 6948,2569 6944,2555 6944,2537 6944,2522 6947,2508 6954,2495 6960,2482 6969,2472 6981,2463 6992,2454 7006,2447 7022,2443 7038,2438 7056,2435 7075,2435 7086,2435 7098,2436 7110,2438 7123,2440 7133,2443 7144,2447 7156,2451 7166,2456 7175,2463 7185,2469 7192,2478 7197,2488 7201,2497 7204,2506 7204,2514 7205,2522 7205,2529 7205,2537 L 7141,2537 C 7142,2524 7140,2514 7135,2507 7131,2499 7125,2494 7118,2490 7111,2486 7104,2484 7096,2483 7089,2482 7082,2482 7076,2482 7074,2482 7069,2482 7062,2482 7054,2483 7047,2484 7039,2488 7031,2491 7023,2495 7017,2502 7011,2508 7008,2518 7008,2530 7008,2537 7009,2544 7013,2549 7016,2554 7020,2558 7025,2561 7030,2564 7035,2567 7041,2568 7046,2570 7051,2571 7055,2573 7079,2578 7098,2583 7113,2586 7128,2590 7140,2594 7149,2597 7159,2600 7167,2604 7173,2607 7178,2611 7184,2614 7189,2619 7198,2628 7205,2638 7208,2649 7212,2660 7214,2670 7214,2681 7214,2700 7210,2717 7201,2732 7192,2747 7181,2759 7169,2766 7154,2775 7138,2781 7121,2784 7103,2788 7086,2789 7069,2789 7052,2789 7035,2787 7019,2783 7004,2780 6990,2774 6977,2765 6965,2756 6955,2745 6948,2731 6941,2717 6937,2700 6937,2680 L 7004,2680 Z"/>
   </g>
  </g>
 </g>
</svg>